<mxfile host="www.draw.io" modified="2020-01-05T08:54:10.501Z" agent="Mozilla/5.0 (Macintosh; Intel Mac OS X 10_13_6) AppleWebKit/537.36 (KHTML, like Gecko) Chrome/79.0.3945.88 Safari/537.36" etag="ew9MiBozdGfr0jhQnVcO" version="12.4.5" type="github">
  <diagram id="YDSZ40Oa2ds1ZQn46RLf" name="第 1 页">
    <mxGraphModel dx="790" dy="501" grid="1" gridSize="10" guides="1" tooltips="1" connect="1" arrows="1" fold="1" page="1" pageScale="1" pageWidth="827" pageHeight="1169" math="0" shadow="0">
      <root>
        <mxCell id="0"/>
        <mxCell id="1" parent="0"/>
        <mxCell id="EmQ3Bz-EsF5GnMM15QyO-66" value="" style="rounded=0;whiteSpace=wrap;html=1;" vertex="1" parent="1">
          <mxGeometry x="510" y="3170" width="115" height="110" as="geometry"/>
        </mxCell>
        <mxCell id="UKzFMY9ASAY2GWc8jaDQ-19" value="" style="edgeStyle=orthogonalEdgeStyle;rounded=0;orthogonalLoop=1;jettySize=auto;html=1;fontSize=14;" parent="1" source="UKzFMY9ASAY2GWc8jaDQ-1" target="UKzFMY9ASAY2GWc8jaDQ-18" edge="1">
          <mxGeometry relative="1" as="geometry"/>
        </mxCell>
        <mxCell id="UKzFMY9ASAY2GWc8jaDQ-1" value="" style="rounded=0;whiteSpace=wrap;html=1;fontSize=14;" parent="1" vertex="1">
          <mxGeometry x="50" y="120" width="720" height="320" as="geometry"/>
        </mxCell>
        <mxCell id="UKzFMY9ASAY2GWc8jaDQ-18" value="" style="rounded=0;whiteSpace=wrap;html=1;fontSize=14;" parent="1" vertex="1">
          <mxGeometry x="50" y="480" width="720" height="280" as="geometry"/>
        </mxCell>
        <mxCell id="UKzFMY9ASAY2GWc8jaDQ-2" value="启动前" style="rounded=1;whiteSpace=wrap;html=1;fontSize=14;" parent="1" vertex="1">
          <mxGeometry x="50" y="120" width="720" height="40" as="geometry"/>
        </mxCell>
        <mxCell id="UKzFMY9ASAY2GWc8jaDQ-3" value="Actor" style="shape=umlActor;verticalLabelPosition=bottom;labelBackgroundColor=#ffffff;verticalAlign=top;html=1;outlineConnect=0;fontSize=14;" parent="1" vertex="1">
          <mxGeometry x="70" y="240" width="30" height="60" as="geometry"/>
        </mxCell>
        <mxCell id="UKzFMY9ASAY2GWc8jaDQ-6" value="1. 生成csr.json&lt;br style=&quot;font-size: 14px&quot;&gt;配置CN为system:kube-proxy" style="whiteSpace=wrap;html=1;aspect=fixed;fontSize=14;" parent="1" vertex="1">
          <mxGeometry x="150" y="240" width="80" height="80" as="geometry"/>
        </mxCell>
        <mxCell id="UKzFMY9ASAY2GWc8jaDQ-10" value="" style="edgeStyle=orthogonalEdgeStyle;rounded=0;orthogonalLoop=1;jettySize=auto;html=1;fontSize=14;" parent="1" target="UKzFMY9ASAY2GWc8jaDQ-9" edge="1">
          <mxGeometry relative="1" as="geometry">
            <mxPoint x="340" y="280" as="sourcePoint"/>
            <Array as="points">
              <mxPoint x="230" y="280"/>
              <mxPoint x="230" y="280"/>
            </Array>
          </mxGeometry>
        </mxCell>
        <mxCell id="UKzFMY9ASAY2GWc8jaDQ-12" value="" style="edgeStyle=orthogonalEdgeStyle;rounded=0;orthogonalLoop=1;jettySize=auto;html=1;fontSize=14;" parent="1" source="UKzFMY9ASAY2GWc8jaDQ-9" target="UKzFMY9ASAY2GWc8jaDQ-11" edge="1">
          <mxGeometry relative="1" as="geometry"/>
        </mxCell>
        <mxCell id="UKzFMY9ASAY2GWc8jaDQ-9" value="2. 通过CA的证书和私钥生成kube-proxy私钥和证书" style="whiteSpace=wrap;html=1;aspect=fixed;fontSize=14;" parent="1" vertex="1">
          <mxGeometry x="280" y="240" width="80" height="80" as="geometry"/>
        </mxCell>
        <mxCell id="UKzFMY9ASAY2GWc8jaDQ-14" value="" style="edgeStyle=orthogonalEdgeStyle;rounded=0;orthogonalLoop=1;jettySize=auto;html=1;fontSize=14;" parent="1" source="UKzFMY9ASAY2GWc8jaDQ-11" target="UKzFMY9ASAY2GWc8jaDQ-13" edge="1">
          <mxGeometry relative="1" as="geometry"/>
        </mxCell>
        <mxCell id="UKzFMY9ASAY2GWc8jaDQ-11" value="3.&amp;nbsp;设置集群（set-cluster）" style="whiteSpace=wrap;html=1;aspect=fixed;fontSize=14;" parent="1" vertex="1">
          <mxGeometry x="420" y="240" width="80" height="80" as="geometry"/>
        </mxCell>
        <mxCell id="UKzFMY9ASAY2GWc8jaDQ-17" value="" style="edgeStyle=orthogonalEdgeStyle;rounded=0;orthogonalLoop=1;jettySize=auto;html=1;fontSize=14;" parent="1" source="UKzFMY9ASAY2GWc8jaDQ-13" target="UKzFMY9ASAY2GWc8jaDQ-16" edge="1">
          <mxGeometry relative="1" as="geometry"/>
        </mxCell>
        <mxCell id="UKzFMY9ASAY2GWc8jaDQ-13" value="4.&amp;nbsp;添加用户(set-credentials)" style="whiteSpace=wrap;html=1;aspect=fixed;fontSize=14;" parent="1" vertex="1">
          <mxGeometry x="550" y="240" width="80" height="80" as="geometry"/>
        </mxCell>
        <mxCell id="UKzFMY9ASAY2GWc8jaDQ-23" value="" style="edgeStyle=orthogonalEdgeStyle;rounded=0;orthogonalLoop=1;jettySize=auto;html=1;fontSize=14;" parent="1" source="UKzFMY9ASAY2GWc8jaDQ-16" target="UKzFMY9ASAY2GWc8jaDQ-22" edge="1">
          <mxGeometry relative="1" as="geometry">
            <Array as="points">
              <mxPoint x="710" y="380"/>
            </Array>
          </mxGeometry>
        </mxCell>
        <mxCell id="UKzFMY9ASAY2GWc8jaDQ-16" value="5.&amp;nbsp;用户和集群绑定(set-context)" style="whiteSpace=wrap;html=1;aspect=fixed;fontSize=14;" parent="1" vertex="1">
          <mxGeometry x="670" y="240" width="80" height="80" as="geometry"/>
        </mxCell>
        <mxCell id="UKzFMY9ASAY2GWc8jaDQ-61" value="" style="edgeStyle=orthogonalEdgeStyle;rounded=0;orthogonalLoop=1;jettySize=auto;html=1;fontSize=14;" parent="1" source="UKzFMY9ASAY2GWc8jaDQ-22" target="UKzFMY9ASAY2GWc8jaDQ-60" edge="1">
          <mxGeometry relative="1" as="geometry"/>
        </mxCell>
        <mxCell id="UKzFMY9ASAY2GWc8jaDQ-22" value="6. kube-proxy的配置文件中指定&lt;span style=&quot;color: rgb(3 , 47 , 98) ; background-color: rgb(246 , 248 , 250) ; font-size: 14px&quot;&gt;kubeconfig&lt;/span&gt;" style="whiteSpace=wrap;html=1;aspect=fixed;fontSize=14;" parent="1" vertex="1">
          <mxGeometry x="550" y="340" width="80" height="80" as="geometry"/>
        </mxCell>
        <mxCell id="UKzFMY9ASAY2GWc8jaDQ-60" value="7.&amp;nbsp;设置默认上下文(use-context)" style="whiteSpace=wrap;html=1;aspect=fixed;fontSize=14;" parent="1" vertex="1">
          <mxGeometry x="420" y="340" width="80" height="80" as="geometry"/>
        </mxCell>
        <mxCell id="UKzFMY9ASAY2GWc8jaDQ-20" value="启动" style="rounded=1;whiteSpace=wrap;html=1;fontSize=14;" parent="1" vertex="1">
          <mxGeometry x="50" y="480" width="720" height="40" as="geometry"/>
        </mxCell>
        <mxCell id="UKzFMY9ASAY2GWc8jaDQ-21" value="集群中默认给这个user，绑定了相应的权限" style="shape=callout;whiteSpace=wrap;html=1;perimeter=calloutPerimeter;fontSize=14;" parent="1" vertex="1">
          <mxGeometry x="140" y="160" width="120" height="80" as="geometry"/>
        </mxCell>
        <mxCell id="UKzFMY9ASAY2GWc8jaDQ-30" style="edgeStyle=orthogonalEdgeStyle;rounded=0;orthogonalLoop=1;jettySize=auto;html=1;entryX=0;entryY=0.375;entryDx=0;entryDy=0;entryPerimeter=0;fontSize=14;" parent="1" source="UKzFMY9ASAY2GWc8jaDQ-24" target="UKzFMY9ASAY2GWc8jaDQ-25" edge="1">
          <mxGeometry relative="1" as="geometry"/>
        </mxCell>
        <mxCell id="UKzFMY9ASAY2GWc8jaDQ-24" value="kube-proxy" style="shape=umlActor;verticalLabelPosition=bottom;labelBackgroundColor=#ffffff;verticalAlign=top;html=1;outlineConnect=0;fontSize=14;" parent="1" vertex="1">
          <mxGeometry x="70" y="630" width="40" height="60" as="geometry"/>
        </mxCell>
        <mxCell id="UKzFMY9ASAY2GWc8jaDQ-33" value="" style="edgeStyle=orthogonalEdgeStyle;rounded=0;orthogonalLoop=1;jettySize=auto;html=1;fontSize=14;" parent="1" source="UKzFMY9ASAY2GWc8jaDQ-25" target="UKzFMY9ASAY2GWc8jaDQ-32" edge="1">
          <mxGeometry relative="1" as="geometry"/>
        </mxCell>
        <mxCell id="UKzFMY9ASAY2GWc8jaDQ-25" value="1. 通过上个阶段生成的kubeconfig和apiserver通信" style="whiteSpace=wrap;html=1;aspect=fixed;fontSize=14;" parent="1" vertex="1">
          <mxGeometry x="150" y="630" width="80" height="80" as="geometry"/>
        </mxCell>
        <mxCell id="UKzFMY9ASAY2GWc8jaDQ-37" value="" style="edgeStyle=orthogonalEdgeStyle;rounded=0;orthogonalLoop=1;jettySize=auto;html=1;fontSize=14;" parent="1" source="UKzFMY9ASAY2GWc8jaDQ-32" target="UKzFMY9ASAY2GWc8jaDQ-36" edge="1">
          <mxGeometry relative="1" as="geometry"/>
        </mxCell>
        <mxCell id="UKzFMY9ASAY2GWc8jaDQ-32" value="2. apiserver已经配置的RBAC" style="whiteSpace=wrap;html=1;aspect=fixed;fontSize=14;" parent="1" vertex="1">
          <mxGeometry x="420" y="630" width="80" height="80" as="geometry"/>
        </mxCell>
        <mxCell id="UKzFMY9ASAY2GWc8jaDQ-36" value="3. 具有对资源的操作权限" style="whiteSpace=wrap;html=1;aspect=fixed;fontSize=14;" parent="1" vertex="1">
          <mxGeometry x="650" y="630" width="80" height="80" as="geometry"/>
        </mxCell>
        <mxCell id="UKzFMY9ASAY2GWc8jaDQ-34" value="crb为：system:node-proxier&lt;br style=&quot;font-size: 14px;&quot;&gt;cr为：system:node-proxier&lt;br style=&quot;font-size: 14px;&quot;&gt;user为：system:kube-proxy" style="shape=callout;whiteSpace=wrap;html=1;perimeter=calloutPerimeter;fontSize=14;" parent="1" vertex="1">
          <mxGeometry x="360" y="520" width="180" height="110" as="geometry"/>
        </mxCell>
        <mxCell id="UKzFMY9ASAY2GWc8jaDQ-38" value="" style="rounded=0;whiteSpace=wrap;html=1;fontSize=14;" parent="1" vertex="1">
          <mxGeometry x="50" y="880" width="730" height="380" as="geometry"/>
        </mxCell>
        <mxCell id="UKzFMY9ASAY2GWc8jaDQ-40" value="" style="rounded=0;whiteSpace=wrap;html=1;fontSize=14;" parent="1" vertex="1">
          <mxGeometry x="50" y="1320" width="732.5" height="690" as="geometry"/>
        </mxCell>
        <mxCell id="UKzFMY9ASAY2GWc8jaDQ-39" value="启动前" style="rounded=1;whiteSpace=wrap;html=1;fontSize=14;" parent="1" vertex="1">
          <mxGeometry x="50" y="880" width="720" height="50" as="geometry"/>
        </mxCell>
        <mxCell id="UKzFMY9ASAY2GWc8jaDQ-44" style="edgeStyle=orthogonalEdgeStyle;rounded=0;orthogonalLoop=1;jettySize=auto;html=1;exitX=0.5;exitY=0.5;exitDx=0;exitDy=0;exitPerimeter=0;entryX=-0.008;entryY=0.333;entryDx=0;entryDy=0;entryPerimeter=0;fontSize=14;" parent="1" source="UKzFMY9ASAY2GWc8jaDQ-42" target="UKzFMY9ASAY2GWc8jaDQ-43" edge="1">
          <mxGeometry relative="1" as="geometry"/>
        </mxCell>
        <mxCell id="UKzFMY9ASAY2GWc8jaDQ-42" value="Actor" style="shape=umlActor;verticalLabelPosition=bottom;labelBackgroundColor=#ffffff;verticalAlign=top;html=1;outlineConnect=0;fontSize=14;" parent="1" vertex="1">
          <mxGeometry x="70" y="1010" width="30" height="60" as="geometry"/>
        </mxCell>
        <mxCell id="UKzFMY9ASAY2GWc8jaDQ-47" value="" style="edgeStyle=orthogonalEdgeStyle;rounded=0;orthogonalLoop=1;jettySize=auto;html=1;fontSize=14;" parent="1" source="UKzFMY9ASAY2GWc8jaDQ-43" target="UKzFMY9ASAY2GWc8jaDQ-46" edge="1">
          <mxGeometry relative="1" as="geometry"/>
        </mxCell>
        <mxCell id="UKzFMY9ASAY2GWc8jaDQ-43" value="1. 生成token" style="rounded=0;whiteSpace=wrap;html=1;fontSize=14;" parent="1" vertex="1">
          <mxGeometry x="140" y="1010" width="90" height="90" as="geometry"/>
        </mxCell>
        <mxCell id="UKzFMY9ASAY2GWc8jaDQ-50" value="" style="edgeStyle=orthogonalEdgeStyle;rounded=0;orthogonalLoop=1;jettySize=auto;html=1;fontSize=14;" parent="1" source="UKzFMY9ASAY2GWc8jaDQ-46" target="UKzFMY9ASAY2GWc8jaDQ-49" edge="1">
          <mxGeometry relative="1" as="geometry"/>
        </mxCell>
        <mxCell id="UKzFMY9ASAY2GWc8jaDQ-46" value="2. 在kube-system下面创建对应的secret" style="rounded=0;whiteSpace=wrap;html=1;fontSize=14;" parent="1" vertex="1">
          <mxGeometry x="310" y="1010" width="90" height="90" as="geometry"/>
        </mxCell>
        <mxCell id="UKzFMY9ASAY2GWc8jaDQ-53" value="" style="edgeStyle=orthogonalEdgeStyle;rounded=0;orthogonalLoop=1;jettySize=auto;html=1;fontSize=14;" parent="1" source="UKzFMY9ASAY2GWc8jaDQ-49" target="UKzFMY9ASAY2GWc8jaDQ-52" edge="1">
          <mxGeometry relative="1" as="geometry"/>
        </mxCell>
        <mxCell id="UKzFMY9ASAY2GWc8jaDQ-49" value="3. 设置RBAC" style="rounded=0;whiteSpace=wrap;html=1;fontSize=14;" parent="1" vertex="1">
          <mxGeometry x="480" y="1010" width="90" height="90" as="geometry"/>
        </mxCell>
        <mxCell id="UKzFMY9ASAY2GWc8jaDQ-55" value="" style="edgeStyle=orthogonalEdgeStyle;rounded=0;orthogonalLoop=1;jettySize=auto;html=1;fontSize=14;" parent="1" source="UKzFMY9ASAY2GWc8jaDQ-52" target="UKzFMY9ASAY2GWc8jaDQ-54" edge="1">
          <mxGeometry relative="1" as="geometry"/>
        </mxCell>
        <mxCell id="UKzFMY9ASAY2GWc8jaDQ-52" value="4.&amp;nbsp;设置集群（set-cluster）" style="rounded=0;whiteSpace=wrap;html=1;fontSize=14;" parent="1" vertex="1">
          <mxGeometry x="650" y="1010" width="90" height="90" as="geometry"/>
        </mxCell>
        <mxCell id="UKzFMY9ASAY2GWc8jaDQ-57" value="" style="edgeStyle=orthogonalEdgeStyle;rounded=0;orthogonalLoop=1;jettySize=auto;html=1;fontSize=14;" parent="1" source="UKzFMY9ASAY2GWc8jaDQ-54" target="UKzFMY9ASAY2GWc8jaDQ-56" edge="1">
          <mxGeometry relative="1" as="geometry"/>
        </mxCell>
        <mxCell id="UKzFMY9ASAY2GWc8jaDQ-54" value="5.根据token添加用户(set-credentials)" style="rounded=0;whiteSpace=wrap;html=1;fontSize=14;" parent="1" vertex="1">
          <mxGeometry x="650" y="1140" width="90" height="90" as="geometry"/>
        </mxCell>
        <mxCell id="UKzFMY9ASAY2GWc8jaDQ-59" value="" style="edgeStyle=orthogonalEdgeStyle;rounded=0;orthogonalLoop=1;jettySize=auto;html=1;fontSize=14;" parent="1" source="UKzFMY9ASAY2GWc8jaDQ-56" target="UKzFMY9ASAY2GWc8jaDQ-58" edge="1">
          <mxGeometry relative="1" as="geometry"/>
        </mxCell>
        <mxCell id="UKzFMY9ASAY2GWc8jaDQ-56" value="6.&amp;nbsp;上下文参数：用户和集群绑定(set-context)" style="rounded=0;whiteSpace=wrap;html=1;fontSize=14;" parent="1" vertex="1">
          <mxGeometry x="480" y="1140" width="90" height="90" as="geometry"/>
        </mxCell>
        <mxCell id="UKzFMY9ASAY2GWc8jaDQ-68" value="" style="edgeStyle=orthogonalEdgeStyle;rounded=0;orthogonalLoop=1;jettySize=auto;html=1;fontSize=14;" parent="1" source="UKzFMY9ASAY2GWc8jaDQ-58" target="UKzFMY9ASAY2GWc8jaDQ-67" edge="1">
          <mxGeometry relative="1" as="geometry"/>
        </mxCell>
        <mxCell id="UKzFMY9ASAY2GWc8jaDQ-58" value="7.设置默认上下文(use-context)" style="rounded=0;whiteSpace=wrap;html=1;fontSize=14;" parent="1" vertex="1">
          <mxGeometry x="310" y="1140" width="90" height="90" as="geometry"/>
        </mxCell>
        <mxCell id="UKzFMY9ASAY2GWc8jaDQ-67" value="8. 配置kubelet、controller-manager" style="rounded=0;whiteSpace=wrap;html=1;fontSize=14;" parent="1" vertex="1">
          <mxGeometry x="130" y="1140" width="90" height="90" as="geometry"/>
        </mxCell>
        <mxCell id="UKzFMY9ASAY2GWc8jaDQ-45" value="&lt;a href=&quot;https://kubernetes.io/docs/reference/access-authn-authz/bootstrap-tokens/#token-format&quot;&gt;token format&lt;/a&gt;" style="shape=callout;whiteSpace=wrap;html=1;perimeter=calloutPerimeter;fontSize=14;" parent="1" vertex="1">
          <mxGeometry x="110" y="940" width="120" height="70" as="geometry"/>
        </mxCell>
        <mxCell id="UKzFMY9ASAY2GWc8jaDQ-48" value="&lt;a href=&quot;https://kubernetes.io/docs/reference/access-authn-authz/bootstrap-tokens/#bootstrap-token-secret-format&quot;&gt;Bootstrap Token Secret Format&lt;/a&gt;" style="shape=callout;whiteSpace=wrap;html=1;perimeter=calloutPerimeter;fontSize=14;" parent="1" vertex="1">
          <mxGeometry x="290" y="940" width="120" height="70" as="geometry"/>
        </mxCell>
        <mxCell id="UKzFMY9ASAY2GWc8jaDQ-51" value="&lt;div&gt;system:bootstrappers组申请CSR和自动approve&lt;/div&gt;&lt;div&gt;system:nodes组更新证书S/C两个&lt;/div&gt;" style="shape=callout;whiteSpace=wrap;html=1;perimeter=calloutPerimeter;fontSize=14;" parent="1" vertex="1">
          <mxGeometry x="420" y="930" width="230" height="80" as="geometry"/>
        </mxCell>
        <mxCell id="UKzFMY9ASAY2GWc8jaDQ-62" value="启动" style="rounded=1;whiteSpace=wrap;html=1;fontSize=14;" parent="1" vertex="1">
          <mxGeometry x="55" y="1320" width="725" height="50" as="geometry"/>
        </mxCell>
        <mxCell id="UKzFMY9ASAY2GWc8jaDQ-69" value="" style="rounded=0;whiteSpace=wrap;html=1;fontSize=14;fillColor=#ffe6cc;strokeColor=#d79b00;" parent="1" vertex="1">
          <mxGeometry x="70" y="1520" width="140" height="340" as="geometry"/>
        </mxCell>
        <mxCell id="UKzFMY9ASAY2GWc8jaDQ-70" value="" style="rounded=0;whiteSpace=wrap;html=1;fontSize=14;fillColor=#f8cecc;strokeColor=#b85450;" parent="1" vertex="1">
          <mxGeometry x="340" y="1520" width="140" height="340" as="geometry"/>
        </mxCell>
        <mxCell id="UKzFMY9ASAY2GWc8jaDQ-71" value="" style="rounded=0;whiteSpace=wrap;html=1;fontSize=14;fillColor=#fff2cc;strokeColor=#d6b656;" parent="1" vertex="1">
          <mxGeometry x="600" y="1520" width="140" height="340" as="geometry"/>
        </mxCell>
        <mxCell id="UKzFMY9ASAY2GWc8jaDQ-72" value="kubelet" style="rounded=1;whiteSpace=wrap;html=1;fontSize=14;fillColor=#ffe6cc;strokeColor=#d79b00;" parent="1" vertex="1">
          <mxGeometry x="70" y="1520" width="140" height="50" as="geometry"/>
        </mxCell>
        <mxCell id="EmQ3Bz-EsF5GnMM15QyO-5" style="edgeStyle=orthogonalEdgeStyle;rounded=0;orthogonalLoop=1;jettySize=auto;html=1;exitX=0.25;exitY=0;exitDx=0;exitDy=0;entryX=0.425;entryY=1.013;entryDx=0;entryDy=0;entryPerimeter=0;" edge="1" parent="1" source="UKzFMY9ASAY2GWc8jaDQ-73" target="EmQ3Bz-EsF5GnMM15QyO-1">
          <mxGeometry relative="1" as="geometry"/>
        </mxCell>
        <mxCell id="UKzFMY9ASAY2GWc8jaDQ-73" value="api-server" style="rounded=1;whiteSpace=wrap;html=1;fontSize=14;fillColor=#f8cecc;strokeColor=#b85450;" parent="1" vertex="1">
          <mxGeometry x="340" y="1520" width="140" height="50" as="geometry"/>
        </mxCell>
        <mxCell id="UKzFMY9ASAY2GWc8jaDQ-74" value="controller-manager" style="rounded=1;whiteSpace=wrap;html=1;fontSize=14;fillColor=#fff2cc;strokeColor=#d6b656;" parent="1" vertex="1">
          <mxGeometry x="600" y="1520" width="140" height="50" as="geometry"/>
        </mxCell>
        <mxCell id="UKzFMY9ASAY2GWc8jaDQ-76" value="" style="endArrow=classic;html=1;fontSize=14;entryX=-0.001;entryY=0.279;entryDx=0;entryDy=0;entryPerimeter=0;fillColor=#6a00ff;strokeColor=#3700CC;" parent="1" target="UKzFMY9ASAY2GWc8jaDQ-70" edge="1">
          <mxGeometry width="50" height="50" relative="1" as="geometry">
            <mxPoint x="210" y="1590" as="sourcePoint"/>
            <mxPoint x="290" y="1460" as="targetPoint"/>
          </mxGeometry>
        </mxCell>
        <mxCell id="UKzFMY9ASAY2GWc8jaDQ-77" value="1.1 bootstrap.config" style="text;html=1;align=center;verticalAlign=middle;resizable=0;points=[];;labelBackgroundColor=#ffffff;fontSize=14;" parent="UKzFMY9ASAY2GWc8jaDQ-76" vertex="1" connectable="0">
          <mxGeometry x="-0.3993" y="-3" relative="1" as="geometry">
            <mxPoint x="22.75" y="4.29" as="offset"/>
          </mxGeometry>
        </mxCell>
        <mxCell id="UKzFMY9ASAY2GWc8jaDQ-78" value="该用户有创建CSR的权限" style="text;html=1;strokeColor=none;fillColor=none;align=center;verticalAlign=middle;whiteSpace=wrap;rounded=0;fontSize=14;" parent="1" vertex="1">
          <mxGeometry x="340" y="1600" width="80" height="20" as="geometry"/>
        </mxCell>
        <mxCell id="UKzFMY9ASAY2GWc8jaDQ-80" value="" style="endArrow=classic;html=1;fontSize=14;entryX=1.021;entryY=0.332;entryDx=0;entryDy=0;entryPerimeter=0;exitX=-0.012;exitY=0.185;exitDx=0;exitDy=0;exitPerimeter=0;fillColor=#6a00ff;strokeColor=#3700CC;" parent="1" source="UKzFMY9ASAY2GWc8jaDQ-71" target="UKzFMY9ASAY2GWc8jaDQ-70" edge="1">
          <mxGeometry width="50" height="50" relative="1" as="geometry">
            <mxPoint x="500" y="1560" as="sourcePoint"/>
            <mxPoint x="550" y="1510" as="targetPoint"/>
          </mxGeometry>
        </mxCell>
        <mxCell id="UKzFMY9ASAY2GWc8jaDQ-81" value="1.2. watch到了有CSR" style="text;html=1;align=center;verticalAlign=middle;resizable=0;points=[];;labelBackgroundColor=#ffffff;fontSize=14;" parent="UKzFMY9ASAY2GWc8jaDQ-80" vertex="1" connectable="0">
          <mxGeometry x="0.2526" y="-1" relative="1" as="geometry">
            <mxPoint as="offset"/>
          </mxGeometry>
        </mxCell>
        <mxCell id="UKzFMY9ASAY2GWc8jaDQ-82" value="这个有自动approve的权限" style="text;html=1;strokeColor=none;fillColor=none;align=center;verticalAlign=middle;whiteSpace=wrap;rounded=0;fontSize=14;" parent="1" vertex="1">
          <mxGeometry x="610" y="1590" width="120" height="20" as="geometry"/>
        </mxCell>
        <mxCell id="EmQ3Bz-EsF5GnMM15QyO-6" value="" style="edgeStyle=orthogonalEdgeStyle;rounded=0;orthogonalLoop=1;jettySize=auto;html=1;" edge="1" parent="1" source="EmQ3Bz-EsF5GnMM15QyO-1" target="UKzFMY9ASAY2GWc8jaDQ-73">
          <mxGeometry relative="1" as="geometry"/>
        </mxCell>
        <mxCell id="EmQ3Bz-EsF5GnMM15QyO-1" value="" style="rounded=0;whiteSpace=wrap;html=1;fillColor=#dae8fc;strokeColor=#6c8ebf;" vertex="1" parent="1">
          <mxGeometry x="175" y="1390" width="470" height="70" as="geometry"/>
        </mxCell>
        <mxCell id="EmQ3Bz-EsF5GnMM15QyO-3" value="ETCD" style="rounded=1;whiteSpace=wrap;html=1;fillColor=#dae8fc;strokeColor=#6c8ebf;" vertex="1" parent="1">
          <mxGeometry x="175" y="1390" width="470" height="30" as="geometry"/>
        </mxCell>
        <mxCell id="EmQ3Bz-EsF5GnMM15QyO-7" value="生成kubelet-client.key" style="text;html=1;strokeColor=none;fillColor=none;align=center;verticalAlign=middle;whiteSpace=wrap;rounded=0;" vertex="1" parent="1">
          <mxGeometry x="75" y="1580" width="130" height="20" as="geometry"/>
        </mxCell>
        <mxCell id="EmQ3Bz-EsF5GnMM15QyO-8" value="" style="endArrow=classic;html=1;exitX=0.999;exitY=0.335;exitDx=0;exitDy=0;exitPerimeter=0;entryX=0;entryY=0.441;entryDx=0;entryDy=0;entryPerimeter=0;fillColor=#6a00ff;strokeColor=#3700CC;" edge="1" parent="1" source="UKzFMY9ASAY2GWc8jaDQ-69" target="UKzFMY9ASAY2GWc8jaDQ-70">
          <mxGeometry width="50" height="50" relative="1" as="geometry">
            <mxPoint x="250" y="1700" as="sourcePoint"/>
            <mxPoint x="300" y="1650" as="targetPoint"/>
          </mxGeometry>
        </mxCell>
        <mxCell id="EmQ3Bz-EsF5GnMM15QyO-11" value="1.4. 通过CSR拿到pem" style="text;html=1;align=center;verticalAlign=middle;resizable=0;points=[];labelBackgroundColor=#ffffff;" vertex="1" connectable="0" parent="EmQ3Bz-EsF5GnMM15QyO-8">
          <mxGeometry x="-0.2576" y="3" relative="1" as="geometry">
            <mxPoint as="offset"/>
          </mxGeometry>
        </mxCell>
        <mxCell id="EmQ3Bz-EsF5GnMM15QyO-15" value="" style="edgeStyle=orthogonalEdgeStyle;rounded=0;orthogonalLoop=1;jettySize=auto;html=1;fillColor=#d80073;strokeColor=#A50040;" edge="1" parent="1" source="EmQ3Bz-EsF5GnMM15QyO-9" target="UKzFMY9ASAY2GWc8jaDQ-70">
          <mxGeometry relative="1" as="geometry"/>
        </mxCell>
        <mxCell id="EmQ3Bz-EsF5GnMM15QyO-9" value="" style="rounded=0;whiteSpace=wrap;html=1;fillColor=#e1d5e7;strokeColor=#9673a6;" vertex="1" parent="1">
          <mxGeometry x="200" y="1920" width="420" height="70" as="geometry"/>
        </mxCell>
        <mxCell id="EmQ3Bz-EsF5GnMM15QyO-10" value="kubectl" style="rounded=1;whiteSpace=wrap;html=1;arcSize=12;fillColor=#e1d5e7;strokeColor=#9673a6;" vertex="1" parent="1">
          <mxGeometry x="350" y="1950" width="120" height="40" as="geometry"/>
        </mxCell>
        <mxCell id="EmQ3Bz-EsF5GnMM15QyO-14" value="" style="edgeStyle=orthogonalEdgeStyle;rounded=0;orthogonalLoop=1;jettySize=auto;html=1;fillColor=#d80073;strokeColor=#A50040;" edge="1" parent="1" source="EmQ3Bz-EsF5GnMM15QyO-12" target="EmQ3Bz-EsF5GnMM15QyO-9">
          <mxGeometry relative="1" as="geometry">
            <mxPoint x="190" y="1955" as="targetPoint"/>
          </mxGeometry>
        </mxCell>
        <mxCell id="EmQ3Bz-EsF5GnMM15QyO-20" value="2.3 手动approve" style="text;html=1;align=center;verticalAlign=middle;resizable=0;points=[];labelBackgroundColor=#ffffff;" vertex="1" connectable="0" parent="EmQ3Bz-EsF5GnMM15QyO-14">
          <mxGeometry x="-0.2247" y="-4" relative="1" as="geometry">
            <mxPoint y="-19" as="offset"/>
          </mxGeometry>
        </mxCell>
        <mxCell id="EmQ3Bz-EsF5GnMM15QyO-12" value="Actor" style="shape=umlActor;verticalLabelPosition=bottom;labelBackgroundColor=#ffffff;verticalAlign=top;html=1;outlineConnect=0;" vertex="1" parent="1">
          <mxGeometry x="80" y="1925" width="30" height="60" as="geometry"/>
        </mxCell>
        <mxCell id="EmQ3Bz-EsF5GnMM15QyO-16" value="放在node机器上" style="text;html=1;strokeColor=none;fillColor=none;align=center;verticalAlign=middle;whiteSpace=wrap;rounded=0;" vertex="1" parent="1">
          <mxGeometry x="90" y="1640" width="90" height="20" as="geometry"/>
        </mxCell>
        <mxCell id="EmQ3Bz-EsF5GnMM15QyO-17" value="" style="endArrow=classic;html=1;entryX=0;entryY=0.706;entryDx=0;entryDy=0;entryPerimeter=0;fillColor=#d80073;strokeColor=#A50040;" edge="1" parent="1" source="UKzFMY9ASAY2GWc8jaDQ-69" target="UKzFMY9ASAY2GWc8jaDQ-70">
          <mxGeometry width="50" height="50" relative="1" as="geometry">
            <mxPoint x="250" y="1790" as="sourcePoint"/>
            <mxPoint x="300" y="1740" as="targetPoint"/>
          </mxGeometry>
        </mxCell>
        <mxCell id="EmQ3Bz-EsF5GnMM15QyO-18" value="2.1 发起第二次CSR" style="text;html=1;align=center;verticalAlign=middle;resizable=0;points=[];labelBackgroundColor=#ffffff;" vertex="1" connectable="0" parent="EmQ3Bz-EsF5GnMM15QyO-17">
          <mxGeometry x="-0.159" y="1" relative="1" as="geometry">
            <mxPoint as="offset"/>
          </mxGeometry>
        </mxCell>
        <mxCell id="EmQ3Bz-EsF5GnMM15QyO-21" value="" style="endArrow=classic;html=1;exitX=-0.001;exitY=0.579;exitDx=0;exitDy=0;exitPerimeter=0;entryX=1.013;entryY=0.667;entryDx=0;entryDy=0;entryPerimeter=0;fillColor=#d80073;strokeColor=#A50040;" edge="1" parent="1" source="UKzFMY9ASAY2GWc8jaDQ-71" target="UKzFMY9ASAY2GWc8jaDQ-70">
          <mxGeometry width="50" height="50" relative="1" as="geometry">
            <mxPoint x="510" y="1770" as="sourcePoint"/>
            <mxPoint x="560" y="1720" as="targetPoint"/>
          </mxGeometry>
        </mxCell>
        <mxCell id="EmQ3Bz-EsF5GnMM15QyO-22" value="2.4 执行approve" style="text;html=1;align=center;verticalAlign=middle;resizable=0;points=[];labelBackgroundColor=#ffffff;" vertex="1" connectable="0" parent="EmQ3Bz-EsF5GnMM15QyO-21">
          <mxGeometry x="0.1031" y="1" relative="1" as="geometry">
            <mxPoint as="offset"/>
          </mxGeometry>
        </mxCell>
        <mxCell id="EmQ3Bz-EsF5GnMM15QyO-23" value="生成kubelet-server.key" style="text;html=1;strokeColor=none;fillColor=none;align=center;verticalAlign=middle;whiteSpace=wrap;rounded=0;" vertex="1" parent="1">
          <mxGeometry x="80" y="1700" width="130" height="20" as="geometry"/>
        </mxCell>
        <mxCell id="EmQ3Bz-EsF5GnMM15QyO-24" value="" style="endArrow=classic;html=1;entryX=0;entryY=0.706;entryDx=0;entryDy=0;entryPerimeter=0;fillColor=#d80073;strokeColor=#A50040;" edge="1" parent="1">
          <mxGeometry width="50" height="50" relative="1" as="geometry">
            <mxPoint x="210" y="1780.0040000000001" as="sourcePoint"/>
            <mxPoint x="340" y="1825.53" as="targetPoint"/>
          </mxGeometry>
        </mxCell>
        <mxCell id="EmQ3Bz-EsF5GnMM15QyO-25" value="2.5 拿到pem" style="text;html=1;align=center;verticalAlign=middle;resizable=0;points=[];labelBackgroundColor=#ffffff;" vertex="1" connectable="0" parent="EmQ3Bz-EsF5GnMM15QyO-24">
          <mxGeometry x="-0.159" y="1" relative="1" as="geometry">
            <mxPoint as="offset"/>
          </mxGeometry>
        </mxCell>
        <mxCell id="EmQ3Bz-EsF5GnMM15QyO-26" value="放在node机器上" style="text;html=1;strokeColor=none;fillColor=none;align=center;verticalAlign=middle;whiteSpace=wrap;rounded=0;" vertex="1" parent="1">
          <mxGeometry x="110" y="1780" width="90" height="20" as="geometry"/>
        </mxCell>
        <mxCell id="UKzFMY9ASAY2GWc8jaDQ-5" value="" style="edgeStyle=orthogonalEdgeStyle;rounded=0;orthogonalLoop=1;jettySize=auto;html=1;fontSize=14;" parent="1" source="UKzFMY9ASAY2GWc8jaDQ-3" edge="1">
          <mxGeometry relative="1" as="geometry">
            <mxPoint x="150" y="270" as="targetPoint"/>
            <Array as="points">
              <mxPoint x="120" y="270"/>
              <mxPoint x="120" y="270"/>
            </Array>
          </mxGeometry>
        </mxCell>
        <mxCell id="EmQ3Bz-EsF5GnMM15QyO-29" value="kubelet" style="rounded=0;whiteSpace=wrap;html=1;" vertex="1" parent="1">
          <mxGeometry x="20" y="2500" width="120" height="220" as="geometry"/>
        </mxCell>
        <mxCell id="EmQ3Bz-EsF5GnMM15QyO-30" value="api-server" style="rounded=0;whiteSpace=wrap;html=1;" vertex="1" parent="1">
          <mxGeometry x="400" y="2500" width="120" height="220" as="geometry"/>
        </mxCell>
        <mxCell id="EmQ3Bz-EsF5GnMM15QyO-31" value="" style="endArrow=classic;html=1;exitX=1.021;exitY=0.167;exitDx=0;exitDy=0;exitPerimeter=0;entryX=0.014;entryY=0.19;entryDx=0;entryDy=0;entryPerimeter=0;" edge="1" parent="1" source="EmQ3Bz-EsF5GnMM15QyO-29" target="EmQ3Bz-EsF5GnMM15QyO-30">
          <mxGeometry width="50" height="50" relative="1" as="geometry">
            <mxPoint x="150" y="2560" as="sourcePoint"/>
            <mxPoint x="200" y="2510" as="targetPoint"/>
          </mxGeometry>
        </mxCell>
        <mxCell id="EmQ3Bz-EsF5GnMM15QyO-32" value="1.&amp;nbsp;" style="text;html=1;align=center;verticalAlign=middle;resizable=0;points=[];labelBackgroundColor=#ffffff;" vertex="1" connectable="0" parent="EmQ3Bz-EsF5GnMM15QyO-31">
          <mxGeometry x="-0.396" y="3" relative="1" as="geometry">
            <mxPoint as="offset"/>
          </mxGeometry>
        </mxCell>
        <mxCell id="EmQ3Bz-EsF5GnMM15QyO-33" value="" style="endArrow=classic;html=1;exitX=-0.001;exitY=0.579;exitDx=0;exitDy=0;exitPerimeter=0;entryX=1.013;entryY=0.667;entryDx=0;entryDy=0;entryPerimeter=0;fillColor=#6a00ff;strokeColor=#3700CC;" edge="1" parent="1">
          <mxGeometry width="50" height="50" relative="1" as="geometry">
            <mxPoint x="599.9999999999999" y="1640.0000000000002" as="sourcePoint"/>
            <mxPoint x="481.96000000000015" y="1669.9200000000003" as="targetPoint"/>
          </mxGeometry>
        </mxCell>
        <mxCell id="EmQ3Bz-EsF5GnMM15QyO-34" value="1.3 approve" style="text;html=1;align=center;verticalAlign=middle;resizable=0;points=[];labelBackgroundColor=#ffffff;" vertex="1" connectable="0" parent="EmQ3Bz-EsF5GnMM15QyO-33">
          <mxGeometry x="0.1031" y="1" relative="1" as="geometry">
            <mxPoint as="offset"/>
          </mxGeometry>
        </mxCell>
        <mxCell id="EmQ3Bz-EsF5GnMM15QyO-38" value="" style="rounded=0;whiteSpace=wrap;html=1;" vertex="1" parent="1">
          <mxGeometry x="35" y="3180" width="115" height="110" as="geometry"/>
        </mxCell>
        <mxCell id="EmQ3Bz-EsF5GnMM15QyO-40" value="CA" style="rounded=0;whiteSpace=wrap;html=1;" vertex="1" parent="1">
          <mxGeometry x="215" y="3000" width="270" height="60" as="geometry"/>
        </mxCell>
        <mxCell id="EmQ3Bz-EsF5GnMM15QyO-42" value="" style="edgeStyle=segmentEdgeStyle;endArrow=classic;html=1;exitX=0.138;exitY=-0.032;exitDx=0;exitDy=0;exitPerimeter=0;entryX=0;entryY=0.25;entryDx=0;entryDy=0;" edge="1" parent="1" source="EmQ3Bz-EsF5GnMM15QyO-38" target="EmQ3Bz-EsF5GnMM15QyO-40">
          <mxGeometry width="50" height="50" relative="1" as="geometry">
            <mxPoint x="-50" y="3290" as="sourcePoint"/>
            <mxPoint x="210" y="3030" as="targetPoint"/>
            <Array as="points">
              <mxPoint x="51" y="3010"/>
              <mxPoint x="210" y="3010"/>
              <mxPoint x="210" y="3015"/>
            </Array>
          </mxGeometry>
        </mxCell>
        <mxCell id="EmQ3Bz-EsF5GnMM15QyO-48" value="1. 将CSR发送给CA" style="text;html=1;align=center;verticalAlign=middle;resizable=0;points=[];labelBackgroundColor=#ffffff;" vertex="1" connectable="0" parent="EmQ3Bz-EsF5GnMM15QyO-42">
          <mxGeometry x="-0.6029" y="1" relative="1" as="geometry">
            <mxPoint x="10.33" as="offset"/>
          </mxGeometry>
        </mxCell>
        <mxCell id="EmQ3Bz-EsF5GnMM15QyO-43" value="server" style="rounded=1;whiteSpace=wrap;html=1;" vertex="1" parent="1">
          <mxGeometry x="35" y="3180" width="115" height="30" as="geometry"/>
        </mxCell>
        <mxCell id="EmQ3Bz-EsF5GnMM15QyO-46" value="生成私钥" style="text;html=1;strokeColor=none;fillColor=none;align=center;verticalAlign=middle;whiteSpace=wrap;rounded=0;" vertex="1" parent="1">
          <mxGeometry x="50" y="3225" width="70" height="20" as="geometry"/>
        </mxCell>
        <mxCell id="EmQ3Bz-EsF5GnMM15QyO-47" value="通过私钥生成CSR" style="text;html=1;strokeColor=none;fillColor=none;align=center;verticalAlign=middle;whiteSpace=wrap;rounded=0;" vertex="1" parent="1">
          <mxGeometry x="50" y="3245" width="100" height="15" as="geometry"/>
        </mxCell>
        <mxCell id="EmQ3Bz-EsF5GnMM15QyO-49" value="" style="edgeStyle=segmentEdgeStyle;endArrow=classic;html=1;entryX=0.924;entryY=-0.091;entryDx=0;entryDy=0;entryPerimeter=0;" edge="1" parent="1" target="EmQ3Bz-EsF5GnMM15QyO-43">
          <mxGeometry width="50" height="50" relative="1" as="geometry">
            <mxPoint x="215" y="3040.33" as="sourcePoint"/>
            <mxPoint x="140" y="3170" as="targetPoint"/>
          </mxGeometry>
        </mxCell>
        <mxCell id="EmQ3Bz-EsF5GnMM15QyO-50" value="2. 签名返回" style="text;html=1;align=center;verticalAlign=middle;resizable=0;points=[];labelBackgroundColor=#ffffff;" vertex="1" connectable="0" parent="EmQ3Bz-EsF5GnMM15QyO-49">
          <mxGeometry x="-0.2643" y="33" relative="1" as="geometry">
            <mxPoint x="-33" y="33" as="offset"/>
          </mxGeometry>
        </mxCell>
        <mxCell id="EmQ3Bz-EsF5GnMM15QyO-57" value="" style="edgeStyle=orthogonalEdgeStyle;rounded=0;orthogonalLoop=1;jettySize=auto;html=1;" edge="1" parent="1">
          <mxGeometry relative="1" as="geometry">
            <mxPoint x="520" y="3184.58" as="sourcePoint"/>
            <mxPoint x="150" y="3184.58" as="targetPoint"/>
          </mxGeometry>
        </mxCell>
        <mxCell id="EmQ3Bz-EsF5GnMM15QyO-59" value="3. 请求建立连接" style="text;html=1;align=center;verticalAlign=middle;resizable=0;points=[];labelBackgroundColor=#ffffff;" vertex="1" connectable="0" parent="EmQ3Bz-EsF5GnMM15QyO-57">
          <mxGeometry x="0.0855" y="-1" relative="1" as="geometry">
            <mxPoint as="offset"/>
          </mxGeometry>
        </mxCell>
        <mxCell id="EmQ3Bz-EsF5GnMM15QyO-52" value="" style="edgeStyle=segmentEdgeStyle;endArrow=classic;html=1;exitX=0.25;exitY=0;exitDx=0;exitDy=0;entryX=1;entryY=0.357;entryDx=0;entryDy=0;entryPerimeter=0;dashed=1;" edge="1" parent="1" target="EmQ3Bz-EsF5GnMM15QyO-40">
          <mxGeometry width="50" height="50" relative="1" as="geometry">
            <mxPoint x="560.3333333333335" y="3169.666666666667" as="sourcePoint"/>
            <mxPoint x="650" y="3040" as="targetPoint"/>
            <Array as="points">
              <mxPoint x="560" y="3030"/>
              <mxPoint x="485" y="3030"/>
            </Array>
          </mxGeometry>
        </mxCell>
        <mxCell id="EmQ3Bz-EsF5GnMM15QyO-53" value="0. 得到CA的证书" style="text;html=1;align=center;verticalAlign=middle;resizable=0;points=[];labelBackgroundColor=#ffffff;" vertex="1" connectable="0" parent="EmQ3Bz-EsF5GnMM15QyO-52">
          <mxGeometry x="-0.1039" y="-1" relative="1" as="geometry">
            <mxPoint as="offset"/>
          </mxGeometry>
        </mxCell>
        <mxCell id="EmQ3Bz-EsF5GnMM15QyO-58" value="client" style="rounded=1;whiteSpace=wrap;html=1;" vertex="1" parent="1">
          <mxGeometry x="510" y="3170" width="115" height="30" as="geometry"/>
        </mxCell>
        <mxCell id="EmQ3Bz-EsF5GnMM15QyO-60" value="" style="endArrow=classic;html=1;exitX=1;exitY=0.5;exitDx=0;exitDy=0;" edge="1" parent="1">
          <mxGeometry width="50" height="50" relative="1" as="geometry">
            <mxPoint x="150" y="3232" as="sourcePoint"/>
            <mxPoint x="510" y="3232" as="targetPoint"/>
          </mxGeometry>
        </mxCell>
        <mxCell id="EmQ3Bz-EsF5GnMM15QyO-61" value="4. 给你证书" style="text;html=1;align=center;verticalAlign=middle;resizable=0;points=[];autosize=1;" vertex="1" parent="1">
          <mxGeometry x="270" y="3215" width="80" height="20" as="geometry"/>
        </mxCell>
        <mxCell id="EmQ3Bz-EsF5GnMM15QyO-62" value="通过CA证书验证" style="text;html=1;strokeColor=none;fillColor=none;align=center;verticalAlign=middle;whiteSpace=wrap;rounded=0;" vertex="1" parent="1">
          <mxGeometry x="505" y="3225" width="105" height="20" as="geometry"/>
        </mxCell>
        <mxCell id="EmQ3Bz-EsF5GnMM15QyO-67" value="" style="endArrow=classic;html=1;exitX=-0.013;exitY=0.892;exitDx=0;exitDy=0;exitPerimeter=0;entryX=1.023;entryY=0.824;entryDx=0;entryDy=0;entryPerimeter=0;" edge="1" parent="1" source="EmQ3Bz-EsF5GnMM15QyO-66" target="EmQ3Bz-EsF5GnMM15QyO-38">
          <mxGeometry width="50" height="50" relative="1" as="geometry">
            <mxPoint x="240" y="3360" as="sourcePoint"/>
            <mxPoint x="290" y="3310" as="targetPoint"/>
          </mxGeometry>
        </mxCell>
        <mxCell id="EmQ3Bz-EsF5GnMM15QyO-69" value="5.&amp;nbsp; 通过server的公钥加密通信" style="text;html=1;strokeColor=none;fillColor=none;align=center;verticalAlign=middle;whiteSpace=wrap;rounded=0;" vertex="1" parent="1">
          <mxGeometry x="270" y="3250" width="180" height="10" as="geometry"/>
        </mxCell>
      </root>
    </mxGraphModel>
  </diagram>
</mxfile>
